<svg width="70" height="70" viewBox="0 0 70 70" fill="none" xmlns="http://www.w3.org/2000/svg">
<path d="M0.516 60.812C0.516 59.996 0.7 59.264 1.068 58.616C1.436 57.96 1.936 57.448 2.568 57.08C3.208 56.712 3.916 56.528 4.692 56.528C5.604 56.528 6.4 56.748 7.08 57.188C7.76 57.628 8.256 58.252 8.568 59.06H7.26C7.028 58.556 6.692 58.168 6.252 57.896C5.82 57.624 5.3 57.488 4.692 57.488C4.108 57.488 3.584 57.624 3.12 57.896C2.656 58.168 2.292 58.556 2.028 59.06C1.764 59.556 1.632 60.14 1.632 60.812C1.632 61.476 1.764 62.06 2.028 62.564C2.292 63.06 2.656 63.444 3.12 63.716C3.584 63.988 4.108 64.124 4.692 64.124C5.3 64.124 5.82 63.992 6.252 63.728C6.692 63.456 7.028 63.068 7.26 62.564H8.568C8.256 63.364 7.76 63.984 7.08 64.424C6.4 64.856 5.604 65.072 4.692 65.072C3.916 65.072 3.208 64.892 2.568 64.532C1.936 64.164 1.436 63.656 1.068 63.008C0.7 62.36 0.516 61.628 0.516 60.812ZM9.78553 61.688C9.78553 61.016 9.92153 60.428 10.1935 59.924C10.4655 59.412 10.8375 59.016 11.3095 58.736C11.7895 58.456 12.3215 58.316 12.9055 58.316C13.4815 58.316 13.9815 58.44 14.4055 58.688C14.8295 58.936 15.1455 59.248 15.3535 59.624V58.424H16.4575V65H15.3535V63.776C15.1375 64.16 14.8135 64.48 14.3815 64.736C13.9575 64.984 13.4615 65.108 12.8935 65.108C12.3095 65.108 11.7815 64.964 11.3095 64.676C10.8375 64.388 10.4655 63.984 10.1935 63.464C9.92153 62.944 9.78553 62.352 9.78553 61.688ZM15.3535 61.7C15.3535 61.204 15.2535 60.772 15.0535 60.404C14.8535 60.036 14.5815 59.756 14.2375 59.564C13.9015 59.364 13.5295 59.264 13.1215 59.264C12.7135 59.264 12.3415 59.36 12.0055 59.552C11.6695 59.744 11.4015 60.024 11.2015 60.392C11.0015 60.76 10.9015 61.192 10.9015 61.688C10.9015 62.192 11.0015 62.632 11.2015 63.008C11.4015 63.376 11.6695 63.66 12.0055 63.86C12.3415 64.052 12.7135 64.148 13.1215 64.148C13.5295 64.148 13.9015 64.052 14.2375 63.86C14.5815 63.66 14.8535 63.376 15.0535 63.008C15.2535 62.632 15.3535 62.196 15.3535 61.7ZM19.3949 59.492C19.5869 59.116 19.8589 58.824 20.2109 58.616C20.5709 58.408 21.0069 58.304 21.5189 58.304V59.432H21.2309C20.0069 59.432 19.3949 60.096 19.3949 61.424V65H18.3029V58.424H19.3949V59.492ZM25.5707 60.812C25.5707 59.996 25.7547 59.264 26.1227 58.616C26.4907 57.96 26.9907 57.448 27.6227 57.08C28.2627 56.712 28.9707 56.528 29.7467 56.528C30.6587 56.528 31.4547 56.748 32.1347 57.188C32.8147 57.628 33.3107 58.252 33.6227 59.06H32.3147C32.0827 58.556 31.7467 58.168 31.3067 57.896C30.8747 57.624 30.3547 57.488 29.7467 57.488C29.1627 57.488 28.6387 57.624 28.1747 57.896C27.7107 58.168 27.3467 58.556 27.0827 59.06C26.8187 59.556 26.6867 60.14 26.6867 60.812C26.6867 61.476 26.8187 62.06 27.0827 62.564C27.3467 63.06 27.7107 63.444 28.1747 63.716C28.6387 63.988 29.1627 64.124 29.7467 64.124C30.3547 64.124 30.8747 63.992 31.3067 63.728C31.7467 63.456 32.0827 63.068 32.3147 62.564H33.6227C33.3107 63.364 32.8147 63.984 32.1347 64.424C31.4547 64.856 30.6587 65.072 29.7467 65.072C28.9707 65.072 28.2627 64.892 27.6227 64.532C26.9907 64.164 26.4907 63.656 26.1227 63.008C25.7547 62.36 25.5707 61.628 25.5707 60.812ZM38.1162 65.108C37.5002 65.108 36.9402 64.968 36.4362 64.688C35.9402 64.408 35.5482 64.012 35.2602 63.5C34.9802 62.98 34.8402 62.38 34.8402 61.7C34.8402 61.028 34.9842 60.436 35.2722 59.924C35.5682 59.404 35.9682 59.008 36.4722 58.736C36.9762 58.456 37.5402 58.316 38.1642 58.316C38.7882 58.316 39.3522 58.456 39.8562 58.736C40.3602 59.008 40.7562 59.4 41.0442 59.912C41.3402 60.424 41.4882 61.02 41.4882 61.7C41.4882 62.38 41.3362 62.98 41.0322 63.5C40.7362 64.012 40.3322 64.408 39.8202 64.688C39.3082 64.968 38.7402 65.108 38.1162 65.108ZM38.1162 64.148C38.5082 64.148 38.8762 64.056 39.2202 63.872C39.5642 63.688 39.8402 63.412 40.0482 63.044C40.2642 62.676 40.3722 62.228 40.3722 61.7C40.3722 61.172 40.2682 60.724 40.0602 60.356C39.8522 59.988 39.5802 59.716 39.2442 59.54C38.9082 59.356 38.5442 59.264 38.1522 59.264C37.7522 59.264 37.3842 59.356 37.0482 59.54C36.7202 59.716 36.4562 59.988 36.2562 60.356C36.0562 60.724 35.9562 61.172 35.9562 61.7C35.9562 62.236 36.0522 62.688 36.2442 63.056C36.4442 63.424 36.7082 63.7 37.0362 63.884C37.3642 64.06 37.7242 64.148 38.1162 64.148ZM46.128 58.304C46.928 58.304 47.576 58.548 48.072 59.036C48.568 59.516 48.816 60.212 48.816 61.124V65H47.736V61.28C47.736 60.624 47.572 60.124 47.244 59.78C46.916 59.428 46.468 59.252 45.9 59.252C45.324 59.252 44.864 59.432 44.52 59.792C44.184 60.152 44.016 60.676 44.016 61.364V65H42.924V58.424H44.016V59.36C44.232 59.024 44.524 58.764 44.892 58.58C45.268 58.396 45.68 58.304 46.128 58.304ZM51.9318 59.324V63.2C51.9318 63.52 51.9998 63.748 52.1358 63.884C52.2718 64.012 52.5078 64.076 52.8438 64.076H53.6478V65H52.6638C52.0558 65 51.5998 64.86 51.2958 64.58C50.9918 64.3 50.8398 63.84 50.8398 63.2V59.324H49.9878V58.424H50.8398V56.768H51.9318V58.424H53.6478V59.324H51.9318ZM56.0629 59.492C56.2549 59.116 56.5269 58.824 56.8789 58.616C57.2389 58.408 57.6749 58.304 58.1869 58.304V59.432H57.8989C56.6749 59.432 56.0629 60.096 56.0629 61.424V65H54.9709V58.424H56.0629V59.492ZM62.3154 65.108C61.6994 65.108 61.1394 64.968 60.6354 64.688C60.1394 64.408 59.7474 64.012 59.4594 63.5C59.1794 62.98 59.0394 62.38 59.0394 61.7C59.0394 61.028 59.1834 60.436 59.4714 59.924C59.7674 59.404 60.1674 59.008 60.6714 58.736C61.1754 58.456 61.7394 58.316 62.3634 58.316C62.9874 58.316 63.5514 58.456 64.0554 58.736C64.5594 59.008 64.9554 59.4 65.2434 59.912C65.5394 60.424 65.6874 61.02 65.6874 61.7C65.6874 62.38 65.5354 62.98 65.2314 63.5C64.9354 64.012 64.5314 64.408 64.0194 64.688C63.5074 64.968 62.9394 65.108 62.3154 65.108ZM62.3154 64.148C62.7074 64.148 63.0754 64.056 63.4194 63.872C63.7634 63.688 64.0394 63.412 64.2474 63.044C64.4634 62.676 64.5714 62.228 64.5714 61.7C64.5714 61.172 64.4674 60.724 64.2594 60.356C64.0514 59.988 63.7794 59.716 63.4434 59.54C63.1074 59.356 62.7434 59.264 62.3514 59.264C61.9514 59.264 61.5834 59.356 61.2474 59.54C60.9194 59.716 60.6554 59.988 60.4554 60.356C60.2554 60.724 60.1554 61.172 60.1554 61.7C60.1554 62.236 60.2514 62.688 60.4434 63.056C60.6434 63.424 60.9074 63.7 61.2354 63.884C61.5634 64.06 61.9234 64.148 62.3154 64.148ZM68.2152 56.12V65H67.1232V56.12H68.2152Z" fill="white"/>
<path fill-rule="evenodd" clip-rule="evenodd" d="M11 8C11 3.58172 14.5817 0 19 0H51C55.4183 0 59 3.58172 59 8V40C59 44.4183 55.4183 48 51 48H19C14.5817 48 11 44.4183 11 40V8ZM35.5 8.99818C34.1299 8.99818 32.8174 9.30867 31.9527 10.2929C31.1387 11.2193 31.0663 12.2034 31.0189 12.8483C31.016 12.8885 31.0131 12.9274 31.0101 12.9649C30.9601 13.6034 30.9185 14.0008 30.8219 14.247C30.7254 14.4932 30.6458 14.6813 30.042 15.0305C29.4382 15.3797 29.236 15.3545 28.9749 15.3151C28.7138 15.2758 28.3495 15.1133 27.7725 14.8375C27.7386 14.8213 27.7036 14.8044 27.6673 14.7868C27.0861 14.5055 26.1988 14.0761 24.9909 14.319C23.7076 14.5771 22.7829 15.5604 22.0979 16.749C21.4128 17.9376 21.0251 19.2315 21.4436 20.4737C21.8376 21.6432 22.6525 22.1982 23.1863 22.5618C23.2046 22.5743 23.2226 22.5865 23.2402 22.5986C23.2545 22.6084 23.2687 22.618 23.2825 22.6276C23.8095 22.9902 24.1321 23.2249 24.2967 23.4318C24.4613 23.6386 24.5842 23.8016 24.5842 24.5C24.5842 25.1984 24.4613 25.3614 24.2967 25.5682C24.1321 25.7751 23.8095 26.0098 23.2825 26.3724C23.252 26.3935 23.2201 26.4151 23.1873 26.4375L23.1863 26.4382C22.6525 26.8018 21.8377 27.3568 21.4436 28.5263C21.0251 29.7685 21.4128 31.0624 22.0979 32.251C22.7829 33.4396 23.7076 34.4229 24.9909 34.681C26.1988 34.9239 27.0861 34.4945 27.6673 34.2132C27.7036 34.1956 27.7386 34.1787 27.7725 34.1625C28.3495 33.8867 28.7138 33.7242 28.9749 33.6849C29.236 33.6455 29.4382 33.6203 30.042 33.9695C30.6458 34.3187 30.7254 34.5068 30.8219 34.753C30.9185 34.9992 30.9601 35.3966 31.0101 36.0351C31.0131 36.0726 31.016 36.1115 31.0189 36.1517C31.0663 36.7966 31.1387 37.7807 31.9527 38.7071C32.8174 39.6913 34.1299 40.0018 35.5 40.0018C36.8702 40.0018 38.1826 39.6913 39.0473 38.7071C39.8613 37.7807 39.9337 36.7965 39.9811 36.1517C39.9841 36.1115 39.9869 36.0726 39.9899 36.0351C40.0399 35.3966 40.0815 34.9992 40.1781 34.753C40.2746 34.5068 40.3542 34.3187 40.958 33.9695C41.5618 33.6203 41.7641 33.6455 42.0251 33.6849C42.2862 33.7242 42.6505 33.8867 43.2275 34.1625C43.2614 34.1787 43.2964 34.1956 43.3326 34.2132C43.9139 34.4944 44.8012 34.9239 46.0091 34.681C47.2924 34.4229 48.2171 33.4396 48.9022 32.251C49.5872 31.0624 49.9749 29.7685 49.5564 28.5263C49.1624 27.3568 48.3475 26.8017 47.8137 26.4382C47.7804 26.4155 47.7483 26.3937 47.7175 26.3724C47.1905 26.0098 46.8679 25.7751 46.7033 25.5682C46.5387 25.3614 46.4158 25.1984 46.4158 24.5C46.4158 23.8016 46.5387 23.6386 46.7033 23.4318C46.8679 23.2249 47.1905 22.9902 47.7175 22.6276C47.748 22.6066 47.7798 22.5849 47.8127 22.5625L47.8137 22.5618C48.3475 22.1982 49.1624 21.6432 49.5564 20.4737C49.9749 19.2315 49.5872 17.9376 48.9022 16.749C48.2171 15.5604 47.2924 14.5771 46.0091 14.319C44.8012 14.0761 43.9139 14.5056 43.3326 14.7868C43.2964 14.8044 43.2614 14.8213 43.2275 14.8375C42.6505 15.1133 42.2862 15.2758 42.0251 15.3151C41.7641 15.3545 41.5618 15.3797 40.958 15.0305C40.3542 14.6813 40.2746 14.4932 40.1781 14.247C40.0815 14.0008 40.0399 13.6034 39.9899 12.9649C39.9883 12.9446 39.9867 12.9239 39.9851 12.9028L39.9811 12.8483C39.9337 12.2035 39.8613 11.2193 39.0473 10.2929C38.1826 9.30867 36.8702 8.99818 35.5 8.99818ZM35.5012 17.7823C39.2315 17.7823 42.2177 20.7679 42.2177 24.5C42.2177 28.2321 39.2315 31.2177 35.5012 31.2177C31.771 31.2177 28.7848 28.2321 28.7848 24.5C28.7848 20.7679 31.771 17.7823 35.5012 17.7823ZM31.3667 24.5C31.3667 22.2378 33.2361 20.3672 35.5 20.3672C37.7639 20.3672 39.6333 22.2378 39.6333 24.5C39.6333 26.7622 37.7639 28.6328 35.5 28.6328C33.2361 28.6328 31.3667 26.7622 31.3667 24.5Z" fill="white"/>
</svg>
