<svg width="48" height="70" viewBox="0 0 48 70" fill="none" xmlns="http://www.w3.org/2000/svg">
<path d="M19.26 59.06C19.028 58.572 18.692 58.196 18.252 57.932C17.812 57.66 17.3 57.524 16.716 57.524C16.132 57.524 15.604 57.66 15.132 57.932C14.668 58.196 14.3 58.58 14.028 59.084C13.764 59.58 13.632 60.156 13.632 60.812C13.632 61.468 13.764 62.044 14.028 62.54C14.3 63.036 14.668 63.42 15.132 63.692C15.604 63.956 16.132 64.088 16.716 64.088C17.532 64.088 18.204 63.844 18.732 63.356C19.26 62.868 19.568 62.208 19.656 61.376H16.32V60.488H20.82V61.328C20.756 62.016 20.54 62.648 20.172 63.224C19.804 63.792 19.32 64.244 18.72 64.58C18.12 64.908 17.452 65.072 16.716 65.072C15.94 65.072 15.232 64.892 14.592 64.532C13.952 64.164 13.444 63.656 13.068 63.008C12.7 62.36 12.516 61.628 12.516 60.812C12.516 59.996 12.7 59.264 13.068 58.616C13.444 57.96 13.952 57.452 14.592 57.092C15.232 56.724 15.94 56.54 16.716 56.54C17.604 56.54 18.388 56.76 19.068 57.2C19.756 57.64 20.256 58.26 20.568 59.06H19.26ZM27.8558 59.084C27.8558 59.78 27.6158 60.36 27.1358 60.824C26.6638 61.28 25.9398 61.508 24.9638 61.508H23.3558V65H22.2638V56.636H24.9638C25.9078 56.636 26.6238 56.864 27.1118 57.32C27.6078 57.776 27.8558 58.364 27.8558 59.084ZM24.9638 60.608C25.5718 60.608 26.0198 60.476 26.3078 60.212C26.5958 59.948 26.7398 59.572 26.7398 59.084C26.7398 58.052 26.1478 57.536 24.9638 57.536H23.3558V60.608H24.9638ZM31.8651 65.084C31.3131 65.084 30.8171 64.988 30.3771 64.796C29.9451 64.596 29.6051 64.324 29.3571 63.98C29.1091 63.628 28.9811 63.224 28.9731 62.768H30.1371C30.1771 63.16 30.3371 63.492 30.6171 63.764C30.9051 64.028 31.3211 64.16 31.8651 64.16C32.3851 64.16 32.7931 64.032 33.0891 63.776C33.3931 63.512 33.5451 63.176 33.5451 62.768C33.5451 62.448 33.4571 62.188 33.2811 61.988C33.1051 61.788 32.8851 61.636 32.6211 61.532C32.3571 61.428 32.0011 61.316 31.5531 61.196C31.0011 61.052 30.5571 60.908 30.2211 60.764C29.8931 60.62 29.6091 60.396 29.3691 60.092C29.1371 59.78 29.0211 59.364 29.0211 58.844C29.0211 58.388 29.1371 57.984 29.3691 57.632C29.6011 57.28 29.9251 57.008 30.3411 56.816C30.7651 56.624 31.2491 56.528 31.7931 56.528C32.5771 56.528 33.2171 56.724 33.7131 57.116C34.2171 57.508 34.5011 58.028 34.5651 58.676H33.3651C33.3251 58.356 33.1571 58.076 32.8611 57.836C32.5651 57.588 32.1731 57.464 31.6851 57.464C31.2291 57.464 30.8571 57.584 30.5691 57.824C30.2811 58.056 30.1371 58.384 30.1371 58.808C30.1371 59.112 30.2211 59.36 30.3891 59.552C30.5651 59.744 30.7771 59.892 31.0251 59.996C31.2811 60.092 31.6371 60.204 32.0931 60.332C32.6451 60.484 33.0891 60.636 33.4251 60.788C33.7611 60.932 34.0491 61.16 34.2891 61.472C34.5291 61.776 34.6491 62.192 34.6491 62.72C34.6491 63.128 34.5411 63.512 34.3251 63.872C34.1091 64.232 33.7891 64.524 33.3651 64.748C32.9411 64.972 32.4411 65.084 31.8651 65.084Z" fill="white"/>
<rect width="48" height="48" rx="8" fill="white"/>
<path d="M38.25 24C38.25 31.8701 31.8701 38.25 24 38.25C16.1299 38.25 9.75 31.8701 9.75 24C9.75 16.1299 16.1299 9.75 24 9.75C31.8701 9.75 38.25 16.1299 38.25 24Z" stroke="black" stroke-width="3"/>
<path d="M27.03 28.9085L29.2567 22.7237C30.1642 20.2026 27.7256 17.764 25.2046 18.6716L19.0197 20.8981C16.3617 21.8551 16.7034 25.7179 19.4881 26.1934C20.6379 26.3897 21.5385 27.2903 21.7349 28.4401C22.2102 31.2249 26.0732 31.5666 27.03 28.9085Z" stroke="black" stroke-width="3" stroke-linecap="round" stroke-linejoin="round"/>
</svg>
