<svg width="48" height="70" viewBox="0 0 48 70" fill="none" xmlns="http://www.w3.org/2000/svg">
<path d="M7.576 65.084C7.024 65.084 6.528 64.988 6.088 64.796C5.656 64.596 5.316 64.324 5.068 63.98C4.82 63.628 4.692 63.224 4.684 62.768H5.848C5.888 63.16 6.048 63.492 6.328 63.764C6.616 64.028 7.032 64.16 7.576 64.16C8.096 64.16 8.504 64.032 8.8 63.776C9.104 63.512 9.256 63.176 9.256 62.768C9.256 62.448 9.168 62.188 8.992 61.988C8.816 61.788 8.596 61.636 8.332 61.532C8.068 61.428 7.712 61.316 7.264 61.196C6.712 61.052 6.268 60.908 5.932 60.764C5.604 60.62 5.32 60.396 5.08 60.092C4.848 59.78 4.732 59.364 4.732 58.844C4.732 58.388 4.848 57.984 5.08 57.632C5.312 57.28 5.636 57.008 6.052 56.816C6.476 56.624 6.96 56.528 7.504 56.528C8.288 56.528 8.928 56.724 9.424 57.116C9.928 57.508 10.212 58.028 10.276 58.676H9.076C9.036 58.356 8.868 58.076 8.572 57.836C8.276 57.588 7.884 57.464 7.396 57.464C6.94 57.464 6.568 57.584 6.28 57.824C5.992 58.056 5.848 58.384 5.848 58.808C5.848 59.112 5.932 59.36 6.1 59.552C6.276 59.744 6.488 59.892 6.736 59.996C6.992 60.092 7.348 60.204 7.804 60.332C8.356 60.484 8.8 60.636 9.136 60.788C9.472 60.932 9.76 61.16 10 61.472C10.24 61.776 10.36 62.192 10.36 62.72C10.36 63.128 10.252 63.512 10.036 63.872C9.82 64.232 9.5 64.524 9.076 64.748C8.652 64.972 8.152 65.084 7.576 65.084ZM13.059 59.636C13.275 59.26 13.595 58.948 14.019 58.7C14.451 58.444 14.951 58.316 15.519 58.316C16.103 58.316 16.631 58.456 17.103 58.736C17.583 59.016 17.959 59.412 18.231 59.924C18.503 60.428 18.639 61.016 18.639 61.688C18.639 62.352 18.503 62.944 18.231 63.464C17.959 63.984 17.583 64.388 17.103 64.676C16.631 64.964 16.103 65.108 15.519 65.108C14.959 65.108 14.463 64.984 14.031 64.736C13.607 64.48 13.283 64.164 13.059 63.788V68.12H11.967V58.424H13.059V59.636ZM17.523 61.688C17.523 61.192 17.423 60.76 17.223 60.392C17.023 60.024 16.751 59.744 16.407 59.552C16.071 59.36 15.699 59.264 15.291 59.264C14.891 59.264 14.519 59.364 14.175 59.564C13.839 59.756 13.567 60.04 13.359 60.416C13.159 60.784 13.059 61.212 13.059 61.7C13.059 62.196 13.159 62.632 13.359 63.008C13.567 63.376 13.839 63.66 14.175 63.86C14.519 64.052 14.891 64.148 15.291 64.148C15.699 64.148 16.071 64.052 16.407 63.86C16.751 63.66 17.023 63.376 17.223 63.008C17.423 62.632 17.523 62.192 17.523 61.688ZM22.9443 65.108C22.3283 65.108 21.7683 64.968 21.2643 64.688C20.7683 64.408 20.3763 64.012 20.0883 63.5C19.8083 62.98 19.6683 62.38 19.6683 61.7C19.6683 61.028 19.8123 60.436 20.1003 59.924C20.3963 59.404 20.7963 59.008 21.3003 58.736C21.8043 58.456 22.3683 58.316 22.9923 58.316C23.6163 58.316 24.1803 58.456 24.6843 58.736C25.1883 59.008 25.5843 59.4 25.8723 59.912C26.1683 60.424 26.3163 61.02 26.3163 61.7C26.3163 62.38 26.1643 62.98 25.8603 63.5C25.5643 64.012 25.1603 64.408 24.6483 64.688C24.1363 64.968 23.5683 65.108 22.9443 65.108ZM22.9443 64.148C23.3363 64.148 23.7043 64.056 24.0483 63.872C24.3923 63.688 24.6683 63.412 24.8763 63.044C25.0923 62.676 25.2003 62.228 25.2003 61.7C25.2003 61.172 25.0963 60.724 24.8883 60.356C24.6803 59.988 24.4083 59.716 24.0723 59.54C23.7363 59.356 23.3723 59.264 22.9803 59.264C22.5803 59.264 22.2123 59.356 21.8763 59.54C21.5483 59.716 21.2843 59.988 21.0843 60.356C20.8843 60.724 20.7843 61.172 20.7843 61.7C20.7843 62.236 20.8803 62.688 21.0723 63.056C21.2723 63.424 21.5363 63.7 21.8643 63.884C22.1923 64.06 22.5523 64.148 22.9443 64.148ZM29.0841 59.324V63.2C29.0841 63.52 29.1521 63.748 29.2881 63.884C29.4241 64.012 29.6601 64.076 29.9961 64.076H30.8001V65H29.8161C29.2081 65 28.7521 64.86 28.4481 64.58C28.1441 64.3 27.9921 63.84 27.9921 63.2V59.324H27.1401V58.424H27.9921V56.768H29.0841V58.424H30.8001V59.324H29.0841ZM32.6872 57.356C32.4792 57.356 32.3032 57.284 32.1592 57.14C32.0152 56.996 31.9432 56.82 31.9432 56.612C31.9432 56.404 32.0152 56.228 32.1592 56.084C32.3032 55.94 32.4792 55.868 32.6872 55.868C32.8872 55.868 33.0552 55.94 33.1912 56.084C33.3352 56.228 33.4072 56.404 33.4072 56.612C33.4072 56.82 33.3352 56.996 33.1912 57.14C33.0552 57.284 32.8872 57.356 32.6872 57.356ZM33.2152 58.424V65H32.1232V58.424H33.2152ZM37.7523 59.324H36.3723V65H35.2803V59.324H34.4283V58.424H35.2803V57.956C35.2803 57.22 35.4683 56.684 35.8443 56.348C36.2283 56.004 36.8403 55.832 37.6803 55.832V56.744C37.2003 56.744 36.8603 56.84 36.6603 57.032C36.4683 57.216 36.3723 57.524 36.3723 57.956V58.424H37.7523V59.324ZM44.6896 58.424L40.7296 68.096H39.6016L40.8976 64.928L38.2456 58.424H39.4576L41.5216 63.752L43.5616 58.424H44.6896Z" fill="white"/>
<rect width="48" height="48" rx="8" fill="#0D0D0D"/>
<g clip-path="url(#clip0_1_85)">
<path fill-rule="evenodd" clip-rule="evenodd" d="M34.6476 21.9574C28.8453 18.5118 19.2751 18.1948 13.7359 19.8759C12.8465 20.1459 11.9059 19.6437 11.6364 18.7543C11.3668 17.8643 11.8685 16.9242 12.7588 16.6539C19.1168 14.724 29.6865 15.0966 36.366 19.0617C37.1661 19.5366 37.4288 20.57 36.9544 21.3685C36.4797 22.1686 35.4458 22.4324 34.6476 21.9574ZM34.4575 27.0611C34.0507 27.7215 33.187 27.9285 32.5273 27.523C27.69 24.5497 20.314 23.6883 14.5909 25.4256C13.8488 25.6498 13.0649 25.2313 12.8396 24.4906C12.6159 23.7485 13.0347 22.9661 13.7754 22.7403C20.3129 20.7566 28.44 21.7173 33.9958 25.1317C34.6555 25.538 34.863 26.402 34.4575 27.0611ZM32.2551 31.9623C31.9315 32.4926 31.2409 32.6588 30.7124 32.3357C26.4857 29.7522 21.1652 29.1689 14.8997 30.6C14.2959 30.7384 13.6941 30.3599 13.5565 29.7564C13.4182 29.1527 13.795 28.5508 14.4004 28.413C21.2569 26.8456 27.1385 27.5201 31.8828 30.4195C32.4118 30.7423 32.5785 31.4335 32.2551 31.9623ZM24 6C14.059 6 6 14.0587 6 23.9997C6 33.9418 14.059 42 24 42C33.9413 42 42 33.9418 42 23.9997C42 14.0587 33.9413 6 24 6Z" fill="#1ED760"/>
</g>
<defs>
<clipPath id="clip0_1_85">
<rect width="36" height="36" fill="white" transform="translate(6 6)"/>
</clipPath>
</defs>
</svg>
